182 380 200
0.000000 0.000000 1.000000
0.309017 0.000000 0.951057
0.293893 0.095492 0.951057
0.250000 0.181636 0.951057
0.181636 0.250000 0.951057
0.095491 0.293893 0.951057
-0.000000 0.309017 0.951057
-0.095492 0.293893 0.951057
-0.181636 0.250000 0.951057
-0.250000 0.181636 0.951057
-0.293893 0.095492 0.951057
-0.309017 -0.000000 0.951057
-0.293893 -0.095491 0.951057
-0.250000 -0.181636 0.951057
-0.181636 -0.250000 0.951057
-0.095492 -0.293893 0.951057
0.000000 -0.309017 0.951057
0.095492 -0.293893 0.951057
0.181636 -0.250000 0.951057
0.250000 -0.181636 0.951057
0.293893 -0.095491 0.951057
0.587785 0.000000 0.809017
0.559017 0.181636 0.809017
0.475528 0.345492 0.809017
0.345491 0.475528 0.809017
0.181636 0.559017 0.809017
-0.000000 0.587785 0.809017
-0.181636 0.559017 0.809017
-0.345491 0.475528 0.809017
-0.475528 0.345491 0.809017
-0.559017 0.181636 0.809017
-0.587785 -0.000000 0.809017
-0.559017 -0.181636 0.809017
-0.475528 -0.345492 0.809017
-0.345491 -0.475528 0.809017
-0.181636 -0.559017 0.809017
0.000000 -0.587785 0.809017
0.181636 -0.559017 0.809017
0.345491 -0.475528 0.809017
0.475528 -0.345492 0.809017
0.559017 -0.181636 0.809017
0.809017 0.000000 0.587785
0.769421 0.250000 0.587785
0.654509 0.475528 0.587785
0.475528 0.654509 0.587785
0.250000 0.769421 0.587785
-0.000000 0.809017 0.587785
-0.250000 0.769421 0.587785
-0.475528 0.654509 0.587785
-0.654509 0.475528 0.587785
-0.769421 0.250000 0.587785
-0.809017 -0.000000 0.587785
-0.769421 -0.250000 0.587785
-0.654508 -0.475528 0.587785
-0.475528 -0.654509 0.587785
-0.250000 -0.769421 0.587785
0.000000 -0.809017 0.587785
0.250000 -0.769421 0.587785
0.475528 -0.654509 0.587785
0.654508 -0.475528 0.587785
0.769421 -0.250000 0.587785
0.951057 0.000000 0.309017
0.904509 0.293893 0.309017
0.769421 0.559017 0.309017
0.559017 0.769421 0.309017
0.293893 0.904509 0.309017
-0.000000 0.951057 0.309017
-0.293893 0.904508 0.309017
-0.559017 0.769421 0.309017
-0.769421 0.559017 0.309017
-0.904508 0.293893 0.309017
-0.951057 -0.000000 0.309017
-0.904509 -0.293893 0.309017
-0.769421 -0.559017 0.309017
-0.559017 -0.769421 0.309017
-0.293893 -0.904508 0.309017
0.000000 -0.951057 0.309017
0.293893 -0.904508 0.309017
0.559017 -0.769421 0.309017
0.769421 -0.559017 0.309017
0.904509 -0.293893 0.309017
1.000000 0.000000 -0.000000
0.951057 0.309017 -0.000000
0.809017 0.587785 -0.000000
0.587785 0.809017 -0.000000
0.309017 0.951057 -0.000000
-0.000000 1.000000 -0.000000
-0.309017 0.951056 -0.000000
-0.587785 0.809017 -0.000000
-0.809017 0.587785 -0.000000
-0.951056 0.309017 -0.000000
-1.000000 -0.000000 -0.000000
-0.951057 -0.309017 -0.000000
-0.809017 -0.587785 -0.000000
-0.587785 -0.809017 -0.000000
-0.309017 -0.951056 -0.000000
0.000000 -1.000000 -0.000000
0.309017 -0.951056 -0.000000
0.587785 -0.809017 -0.000000
0.809017 -0.587785 -0.000000
0.951057 -0.309017 -0.000000
0.951056 0.000000 -0.309017
0.904508 0.293893 -0.309017
0.769421 0.559017 -0.309017
0.559017 0.769421 -0.309017
0.293893 0.904508 -0.309017
-0.000000 0.951056 -0.309017
-0.293893 0.904508 -0.309017
-0.559017 0.769421 -0.309017
-0.769421 0.559017 -0.309017
-0.904508 0.293893 -0.309017
-0.951056 -0.000000 -0.309017
-0.904508 -0.293893 -0.309017
-0.769421 -0.559017 -0.309017
-0.559017 -0.769421 -0.309017
-0.293893 -0.904508 -0.309017
0.000000 -0.951056 -0.309017
0.293893 -0.904508 -0.309017
0.559017 -0.769421 -0.309017
0.769421 -0.559017 -0.309017
0.904508 -0.293893 -0.309017
0.809017 0.000000 -0.587785
0.769421 0.250000 -0.587785
0.654509 0.475528 -0.587785
0.475528 0.654509 -0.587785
0.250000 0.769421 -0.587785
-0.000000 0.809017 -0.587785
-0.250000 0.769421 -0.587785
-0.475528 0.654509 -0.587785
-0.654509 0.475528 -0.587785
-0.769421 0.250000 -0.587785
-0.809017 -0.000000 -0.587785
-0.769421 -0.250000 -0.587785
-0.654508 -0.475528 -0.587785
-0.475528 -0.654509 -0.587785
-0.250000 -0.769421 -0.587785
0.000000 -0.809017 -0.587785
0.250000 -0.769421 -0.587785
0.475528 -0.654509 -0.587785
0.654508 -0.475528 -0.587785
0.769421 -0.250000 -0.587785
0.587785 0.000000 -0.809017
0.559017 0.181636 -0.809017
0.475528 0.345491 -0.809017
0.345491 0.475528 -0.809017
0.181636 0.559017 -0.809017
-0.000000 0.587785 -0.809017
-0.181636 0.559017 -0.809017
-0.345491 0.475528 -0.809017
-0.475528 0.345491 -0.809017
-0.559017 0.181636 -0.809017
-0.587785 -0.000000 -0.809017
-0.559017 -0.181636 -0.809017
-0.475528 -0.345492 -0.809017
-0.345491 -0.475528 -0.809017
-0.181636 -0.559017 -0.809017
0.000000 -0.587785 -0.809017
0.181636 -0.559017 -0.809017
0.345491 -0.475528 -0.809017
0.475528 -0.345491 -0.809017
0.559017 -0.181636 -0.809017
0.309017 0.000000 -0.951056
0.293893 0.095492 -0.951056
0.250000 0.181636 -0.951056
0.181636 0.250000 -0.951056
0.095492 0.293893 -0.951056
-0.000000 0.309017 -0.951056
-0.095492 0.293893 -0.951056
-0.181636 0.250000 -0.951056
-0.250000 0.181636 -0.951056
-0.293893 0.095492 -0.951056
-0.309017 -0.000000 -0.951056
-0.293893 -0.095492 -0.951056
-0.250000 -0.181636 -0.951056
-0.181636 -0.250000 -0.951056
-0.095492 -0.293893 -0.951056
0.000000 -0.309017 -0.951056
0.095492 -0.293893 -0.951056
0.181636 -0.250000 -0.951056
0.250000 -0.181636 -0.951056
0.293893 -0.095491 -0.951056
0.000000 0.000000 -1.000000
0 1
0 2
0 3
0 4
0 5
0 6
0 7
0 8
0 9
0 10
0 11
0 12
0 13
0 14
0 15
0 16
0 17
0 18
0 19
0 20
1 21
2 22
3 23
4 24
5 25
6 26
7 27
8 28
9 29
10 30
11 31
12 32
13 33
14 34
15 35
16 36
17 37
18 38
19 39
20 40
21 41
22 42
23 43
24 44
25 45
26 46
27 47
28 48
29 49
30 50
31 51
32 52
33 53
34 54
35 55
36 56
37 57
38 58
39 59
40 60
41 61
42 62
43 63
44 64
45 65
46 66
47 67
48 68
49 69
50 70
51 71
52 72
53 73
54 74
55 75
56 76
57 77
58 78
59 79
60 80
61 81
62 82
63 83
64 84
65 85
66 86
67 87
68 88
69 89
70 90
71 91
72 92
73 93
74 94
75 95
76 96
77 97
78 98
79 99
80 100
81 101
82 102
83 103
84 104
85 105
86 106
87 107
88 108
89 109
90 110
91 111
92 112
93 113
94 114
95 115
96 116
97 117
98 118
99 119
100 120
101 121
102 122
103 123
104 124
105 125
106 126
107 127
108 128
109 129
110 130
111 131
112 132
113 133
114 134
115 135
116 136
117 137
118 138
119 139
120 140
121 141
122 142
123 143
124 144
125 145
126 146
127 147
128 148
129 149
130 150
131 151
132 152
133 153
134 154
135 155
136 156
137 157
138 158
139 159
140 160
141 161
142 162
143 163
144 164
145 165
146 166
147 167
148 168
149 169
150 170
151 171
152 172
153 173
154 174
155 175
156 176
157 177
158 178
159 179
160 180
161 181
162 181
163 181
164 181
165 181
166 181
167 181
168 181
169 181
170 181
171 181
172 181
173 181
174 181
175 181
176 181
177 181
178 181
179 181
180 181
1 2
2 3
3 4
4 5
5 6
6 7
7 8
8 9
9 10
10 11
11 12
12 13
13 14
14 15
15 16
16 17
17 18
18 19
19 20
20 1
21 22
22 23
23 24
24 25
25 26
26 27
27 28
28 29
29 30
30 31
31 32
32 33
33 34
34 35
35 36
36 37
37 38
38 39
39 40
40 21
41 42
42 43
43 44
44 45
45 46
46 47
47 48
48 49
49 50
50 51
51 52
52 53
53 54
54 55
55 56
56 57
57 58
58 59
59 60
60 41
61 62
62 63
63 64
64 65
65 66
66 67
67 68
68 69
69 70
70 71
71 72
72 73
73 74
74 75
75 76
76 77
77 78
78 79
79 80
80 61
81 82
82 83
83 84
84 85
85 86
86 87
87 88
88 89
89 90
90 91
91 92
92 93
93 94
94 95
95 96
96 97
97 98
98 99
99 100
100 81
101 102
102 103
103 104
104 105
105 106
106 107
107 108
108 109
109 110
110 111
111 112
112 113
113 114
114 115
115 116
116 117
117 118
118 119
119 120
120 101
121 122
122 123
123 124
124 125
125 126
126 127
127 128
128 129
129 130
130 131
131 132
132 133
133 134
134 135
135 136
136 137
137 138
138 139
139 140
140 121
141 142
142 143
143 144
144 145
145 146
146 147
147 148
148 149
149 150
150 151
151 152
152 153
153 154
154 155
155 156
156 157
157 158
158 159
159 160
160 141
161 162
162 163
163 164
164 165
165 166
166 167
167 168
168 169
169 170
170 171
171 172
172 173
173 174
174 175
175 176
176 177
177 178
178 179
179 180
180 161
0 1 2
0 2 3
0 3 4
0 4 5
0 5 6
0 6 7
0 7 8
0 8 9
0 9 10
0 10 11
0 11 12
0 12 13
0 13 14
0 14 15
0 15 16
0 16 17
0 17 18
0 18 19
0 19 20
0 20 1
1 21 22 2
2 22 23 3
3 23 24 4
4 24 25 5
5 25 26 6
6 26 27 7
7 27 28 8
8 28 29 9
9 29 30 10
10 30 31 11
11 31 32 12
12 32 33 13
13 33 34 14
14 34 35 15
15 35 36 16
16 36 37 17
17 37 38 18
18 38 39 19
19 39 40 20
20 40 21 1
21 41 42 22
22 42 43 23
23 43 44 24
24 44 45 25
25 45 46 26
26 46 47 27
27 47 48 28
28 48 49 29
29 49 50 30
30 50 51 31
31 51 52 32
32 52 53 33
33 53 54 34
34 54 55 35
35 55 56 36
36 56 57 37
37 57 58 38
38 58 59 39
39 59 60 40
40 60 41 21
41 61 62 42
42 62 63 43
43 63 64 44
44 64 65 45
45 65 66 46
46 66 67 47
47 67 68 48
48 68 69 49
49 69 70 50
50 70 71 51
51 71 72 52
52 72 73 53
53 73 74 54
54 74 75 55
55 75 76 56
56 76 77 57
57 77 78 58
58 78 79 59
59 79 80 60
60 80 61 41
61 81 82 62
62 82 83 63
63 83 84 64
64 84 85 65
65 85 86 66
66 86 87 67
67 87 88 68
68 88 89 69
69 89 90 70
70 90 91 71
71 91 92 72
72 92 93 73
73 93 94 74
74 94 95 75
75 95 96 76
76 96 97 77
77 97 98 78
78 98 99 79
79 99 100 80
80 100 81 61
81 101 102 82
82 102 103 83
83 103 104 84
84 104 105 85
85 105 106 86
86 106 107 87
87 107 108 88
88 108 109 89
89 109 110 90
90 110 111 91
91 111 112 92
92 112 113 93
93 113 114 94
94 114 115 95
95 115 116 96
96 116 117 97
97 117 118 98
98 118 119 99
99 119 120 100
100 120 101 81
101 121 122 102
102 122 123 103
103 123 124 104
104 124 125 105
105 125 126 106
106 126 127 107
107 127 128 108
108 128 129 109
109 129 130 110
110 130 131 111
111 131 132 112
112 132 133 113
113 133 134 114
114 134 135 115
115 135 136 116
116 136 137 117
117 137 138 118
118 138 139 119
119 139 140 120
120 140 121 101
121 141 142 122
122 142 143 123
123 143 144 124
124 144 145 125
125 145 146 126
126 146 147 127
127 147 148 128
128 148 149 129
129 149 150 130
130 150 151 131
131 151 152 132
132 152 153 133
133 153 154 134
134 154 155 135
135 155 156 136
136 156 157 137
137 157 158 138
138 158 159 139
139 159 160 140
140 160 141 121
141 161 162 142
142 162 163 143
143 163 164 144
144 164 165 145
145 165 166 146
146 166 167 147
147 167 168 148
148 168 169 149
149 169 170 150
150 170 171 151
151 171 172 152
152 172 173 153
153 173 174 154
154 174 175 155
155 175 176 156
156 176 177 157
157 177 178 158
158 178 179 159
159 179 180 160
160 180 161 141
162 161 181
163 162 181
164 163 181
165 164 181
166 165 181
167 166 181
168 167 181
169 168 181
170 169 181
171 170 181
172 171 181
173 172 181
174 173 181
175 174 181
176 175 181
177 176 181
178 177 181
179 178 181
180 179 181
161 180 181
